<svg xmlns="http://www.w3.org/2000/svg" width="667.702" height="475.448" viewBox="0 0 667.702 475.448">
  <g id="undraw_complete_task_u2c3" transform="translate(0)">
    <ellipse id="Ellipse_1" data-name="Ellipse 1" cx="58.678" cy="9.905" rx="58.678" ry="9.905" transform="translate(47.034 429.91)" opacity="0.1"/>
    <ellipse id="Ellipse_2" data-name="Ellipse 2" cx="58.678" cy="9.905" rx="58.678" ry="9.905" transform="translate(260.766 454.168)" opacity="0.1"/>
    <path id="Path_122" data-name="Path 122" d="M164.758,456.42c4.245,5.661,8.824,12.14,13.343,19.2l.645-32.569.356.228a63.565,63.565,0,0,0-15.725-8.405l.356.2Z" transform="translate(-115.785 -207.067)" fill="#e6e6e6"/>
    <path id="Path_123" data-name="Path 123" d="M153.678,433.563a33.485,33.485,0,0,0-16.631-1.723c-.269.048-.533.1-.8.159,1.312,1.407,8.956,9.718,18.418,22.243Z" transform="translate(-106.443 -205.881)" fill="#e6e6e6"/>
    <path id="Path_124" data-name="Path 124" d="M214.781,531.5q1.044,2.492,1.986,4.951l11.946-35.272.344.328q-2.116-3.98-4.486-7.739l-9.626,37.876Z" transform="translate(-133.487 -227.349)" fill="#e6e6e6"/>
    <path id="Path_125" data-name="Path 125" d="M198.208,500.9l6.243-36.98.354.284A99.931,99.931,0,0,0,187.569,448.1l-.658,33.189Q193.22,491.241,198.208,500.9Z" transform="translate(-123.889 -211.62)" fill="#e6e6e6"/>
    <path id="Path_126" data-name="Path 126" d="M107.3,488.484l-.146-.451a83.44,83.44,0,0,0,3.3,16.491l57.4,5.921c-3-5.526-6.09-10.71-9.093-15.436Z" transform="translate(-96.424 -225.374)" fill="#e6e6e6"/>
    <path id="Path_127" data-name="Path 127" d="M112.544,514.325l-.151-.451q.871,2.84,1.953,5.744l-.155-.45,58.1,5.164q-1.053-2.059-2.129-4.064Z" transform="translate(-98.227 -234.273)" fill="#e6e6e6"/>
    <path id="Path_128" data-name="Path 128" d="M211.024,523.477l9.546-37.56.349.308a119.327,119.327,0,0,0-9.527-12.962l-6.327,37.48Q208.355,517.2,211.024,523.477Z" transform="translate(-130.141 -220.287)" fill="#e6e6e6"/>
    <path id="Path_129" data-name="Path 129" d="M188.162,558.889l-56.535-5.444a115.454,115.454,0,0,0,10.022,11.764l-.14-.5,51.678,10.632a143.508,143.508,0,0,0-5.025-16.451Z" transform="translate(-104.851 -247.901)" fill="#e6e6e6"/>
    <path id="Path_130" data-name="Path 130" d="M127.059,432.693l.133-.285c-7.772,1.764-13.259,7.052-16.278,14.706l34.584,7.814C135.257,441.379,127.176,432.816,127.059,432.693Z" transform="translate(-97.717 -206.218)" fill="#e6e6e6"/>
    <path id="Path_131" data-name="Path 131" d="M219.108,543.59a142.594,142.594,0,0,1,4.52,14.844l13.463-33.766.329.33a56.529,56.529,0,0,0-4.3-13.605q-1.191-2.55-2.494-5.023l-12.088,35.693C218.73,542.572,218.924,543.083,219.108,543.59Z" transform="translate(-134.781 -231.689)" fill="#e6e6e6"/>
    <path id="Path_132" data-name="Path 132" d="M158.024,482.838c-4.473-6.977-9-13.378-13.2-18.973l-35.377-7.994-.12-.446c-2.209,5.816-3.016,12.961-2.347,20.941Z" transform="translate(-96.285 -214.144)" fill="#e6e6e6"/>
    <path id="Path_133" data-name="Path 133" d="M125.431,542.133l56.858,5.475.011-.034a193.673,193.673,0,0,0-8.433-19.069l-58.239-5.177q1.483,3.928,3.353,7.939a69.413,69.413,0,0,0,6.45,10.865Z" transform="translate(-99.341 -237.529)" fill="#e6e6e6"/>
    <path id="Path_134" data-name="Path 134" d="M329,560.375l.129.4a63.573,63.573,0,0,0-6.75-16.5l.148.38-12.827,17.1c-.342,7.068-.947,14.978-1.97,23.3Z" transform="translate(-165.497 -244.742)" fill="#e6e6e6"/>
    <path id="Path_135" data-name="Path 135" d="M323.25,537.307a33.486,33.486,0,0,0-11.71-11.934c-.237-.135-.476-.26-.715-.385.113,1.921.7,13.2,0,28.879Z" transform="translate(-166.563 -238.1)" fill="#e6e6e6"/>
    <path id="Path_136" data-name="Path 136" d="M294.54,654.76q-.786,2.585-1.628,5.079l31.7-19.547.055.472q.909-4.415,1.481-8.822l-31.572,23.032Z" transform="translate(-160.394 -274.933)" fill="#e6e6e6"/>
    <path id="Path_137" data-name="Path 137" d="M301.671,617.559l28.395-24.5.092.445a99.925,99.925,0,0,0-3-23.4L305.48,595.249Q303.989,606.941,301.671,617.559Z" transform="translate(-163.41 -253.639)" fill="#e6e6e6"/>
    <path id="Path_138" data-name="Path 138" d="M328.159,606.584,299.38,631.415q-1.586,7.072-3.533,13.608l31.309-22.84.073.46A119.334,119.334,0,0,0,328.159,606.584Z" transform="translate(-161.405 -266.201)" fill="#e6e6e6"/>
    <path id="Path_139" data-name="Path 139" d="M217.09,666.152q.038-.581.073-1.194a99.314,99.314,0,0,0,13.027-19.973l-17.381-21.659q-.342-1.109-.715-2.212l18.5,23.054a143.511,143.511,0,0,0,6.623-15.875l-36.59-36.756c.114-.288.23-.584.347-.885l36.543,36.709.03-.019a193.719,193.719,0,0,0,5.667-20.065l-36.288-35.921q.114-.5.225-1.006l36.289,35.922q.5-2.258.952-4.488l-36.182-36.842q.091-.527.177-1.059l36.21,36.871c1.217-6.167,2.141-12.133,2.842-17.688l-35.472-37.848.175-.441c-.84,1.224-1.657,2.508-2.453,3.838a73.131,73.131,0,0,0-1.021-12.553l-13.592,34.089a109.739,109.739,0,0,1,2.356,14.271c-.082.813-.157,1.63-.216,2.455l.447.449c.028.438.055.875.076,1.31l-.594-.6c-.028.478-.049.96-.07,1.442a103.343,103.343,0,0,0-2.653-19.243l-51.3-10.554c2.584,2.653,5.292,5.23,8.06,7.717a62.707,62.707,0,0,0-16.574-2.832l.4.078,7.573,19.986c5.787,4.072,12.144,8.818,18.625,14.136l-9.322-30.742q.518.461,1.039.917l9.3,30.663q9.077,7.518,16.805,15.16l-4.273-28.858.894.621,4.319,29.17q5.124,5.125,9.6,10.269L187.5,594.335l.866.54,2.093,31.972-.2-.086q1.763,2.048,3.419,4.095l.4-32.53q.462.271.855.5l-.408,33.093c.339.426.682.851,1.014,1.277a142.6,142.6,0,0,1,8.886,12.72l.193-2.96q.357,1.316.714,2.588l-.11,1.683c.4.662.784,1.323,1.165,1.984q.445,1.512.882,2.94-1.264-2.343-2.641-4.639l-52.05,5.82c27.368,14.4,61.329,21.221,63.494,21.647-.513-2.271-1.138-4.521-1.856-6.751.187-.2.371-.393.556-.591.088.266.18.533.265.8-.1.1-.192.209-.289.312l.336-.159q.75,2.351,1.345,4.687c.158-1.265.37-3.186.556-5.616,9.374-4.693,33.651-18.407,45.976-39.907L230.75,645.335A100.292,100.292,0,0,1,217.09,666.152Zm-10.673-50.791.08-1.221.817,1.018-.08,1.221Z" transform="translate(-105.877 -241.915)" fill="#e6e6e6"/>
    <path id="Path_140" data-name="Path 140" d="M298.568,523.625l.285-.135c-7.111-3.6-14.71-3.026-21.917.943l21.652,28.077C299.342,535.543,298.579,523.794,298.568,523.625Z" transform="translate(-154.892 -236.76)" fill="#e6e6e6"/>
    <path id="Path_141" data-name="Path 141" d="M288.273,667.6a142.589,142.589,0,0,1-5.987,14.315l31.905-17.42.043.464a56.534,56.534,0,0,0,5.367-13.22q.709-2.724,1.283-5.459l-32.075,19.78C288.631,666.575,288.455,667.092,288.273,667.6Z" transform="translate(-156.735 -279.871)" fill="#e6e6e6"/>
    <path id="Path_142" data-name="Path 142" d="M290.373,555.633l-22.149-28.721.192-.42c-5.411,3.071-10.59,8.059-15.164,14.632l35.183,37.539C289.441,570.435,290.036,562.618,290.373,555.633Z" transform="translate(-146.736 -238.618)" fill="#e6e6e6"/>
    <path id="Path_143" data-name="Path 143" d="M125.072,579.53a33.485,33.485,0,0,0-16.349,3.5c-.241.129-.475.263-.708.4,1.682.933,11.521,6.474,24.392,15.461Z" transform="translate(-96.719 -256.882)" fill="#e6e6e6"/>
    <path id="Path_144" data-name="Path 144" d="M148.808,633.268l-50.957,9.7-.278-.384a83.44,83.44,0,0,0,8.233,14.665l56.421-12.112C157.669,640.808,153.125,636.834,148.808,633.268Z" transform="translate(-93.123 -275.39)" fill="#e6e6e6"/>
    <path id="Path_145" data-name="Path 145" d="M170.734,655.684q-1.638-1.633-3.281-3.207l-56.63,12.157-.283-.382q1.706,2.432,3.633,4.859l-.286-.381Z" transform="translate(-97.588 -282.005)" fill="#e6e6e6"/>
    <path id="Path_146" data-name="Path 146" d="M206.376,697.46a143.516,143.516,0,0,0-9.863-14.092l-55.449,12.3a115.452,115.452,0,0,0,13.167,8.09l-.288-.433Z" transform="translate(-108.1 -292.643)" fill="#e6e6e6"/>
    <path id="Path_147" data-name="Path 147" d="M101.783,586.054l.038-.313c-6.846,4.08-10.43,10.805-10.936,19.017l35.306-3.258C112.263,591.781,101.931,586.134,101.783,586.054Z" transform="translate(-90.82 -259.023)" fill="#e6e6e6"/>
    <path id="Path_148" data-name="Path 148" d="M127.193,610.886l-36.116,3.333-.252-.388c-.3,6.214,1.138,13.259,4.241,20.641l50.542-9.622C139.2,619.6,132.913,614.909,127.193,610.886Z" transform="translate(-90.786 -267.682)" fill="#e6e6e6"/>
    <path id="Path_149" data-name="Path 149" d="M187.441,674.008a193.693,193.693,0,0,0-13.914-15.528L116.54,671.558q2.624,3.277,5.642,6.514a69.406,69.406,0,0,0,9.492,8.339l55.766-12.368Z" transform="translate(-99.655 -284.073)" fill="#e6e6e6"/>
    <path id="Path_150" data-name="Path 150" d="M164.758,456.42c4.245,5.661,8.824,12.14,13.343,19.2l.645-32.569.356.228a63.565,63.565,0,0,0-15.725-8.405l.356.2Z" transform="translate(-115.785 -207.067)" fill="#6c63ff"/>
    <path id="Path_151" data-name="Path 151" d="M153.678,433.563a33.485,33.485,0,0,0-16.631-1.723c-.269.048-.533.1-.8.159,1.312,1.407,8.956,9.718,18.418,22.243Z" transform="translate(-106.443 -205.881)" fill="#6c63ff"/>
    <path id="Path_152" data-name="Path 152" d="M214.781,531.5q1.044,2.492,1.986,4.951l11.946-35.272.344.328q-2.116-3.98-4.486-7.739l-9.626,37.876Z" transform="translate(-133.487 -227.349)" fill="#6c63ff"/>
    <path id="Path_153" data-name="Path 153" d="M198.208,500.9l6.243-36.98.354.284A99.931,99.931,0,0,0,187.569,448.1l-.658,33.189Q193.22,491.241,198.208,500.9Z" transform="translate(-123.889 -211.62)" fill="#6c63ff"/>
    <path id="Path_154" data-name="Path 154" d="M107.3,488.484l-.146-.451a83.44,83.44,0,0,0,3.3,16.491l57.4,5.921c-3-5.526-6.09-10.71-9.093-15.436Z" transform="translate(-96.424 -225.374)" fill="#6c63ff"/>
    <path id="Path_155" data-name="Path 155" d="M112.544,514.325l-.151-.451q.871,2.84,1.953,5.744l-.155-.45,58.1,5.164q-1.053-2.059-2.129-4.064Z" transform="translate(-98.227 -234.273)" fill="#6c63ff"/>
    <path id="Path_156" data-name="Path 156" d="M211.024,523.477l9.546-37.56.349.308a119.327,119.327,0,0,0-9.527-12.962l-6.327,37.48Q208.355,517.2,211.024,523.477Z" transform="translate(-130.141 -220.287)" fill="#6c63ff"/>
    <path id="Path_157" data-name="Path 157" d="M188.162,558.889l-56.535-5.444a115.454,115.454,0,0,0,10.022,11.764l-.14-.5,51.678,10.632a143.508,143.508,0,0,0-5.025-16.451Z" transform="translate(-104.851 -247.901)" fill="#6c63ff"/>
    <path id="Path_158" data-name="Path 158" d="M127.059,432.693l.133-.285c-7.772,1.764-13.259,7.052-16.278,14.706l34.584,7.814C135.257,441.379,127.176,432.816,127.059,432.693Z" transform="translate(-97.717 -206.218)" fill="#6c63ff"/>
    <path id="Path_159" data-name="Path 159" d="M219.108,543.59a142.594,142.594,0,0,1,4.52,14.844l13.463-33.766.329.33a56.529,56.529,0,0,0-4.3-13.605q-1.191-2.55-2.494-5.023l-12.088,35.693C218.73,542.572,218.924,543.083,219.108,543.59Z" transform="translate(-134.781 -231.689)" fill="#6c63ff"/>
    <path id="Path_160" data-name="Path 160" d="M158.024,482.838c-4.473-6.977-9-13.378-13.2-18.973l-35.377-7.994-.12-.446c-2.209,5.816-3.016,12.961-2.347,20.941Z" transform="translate(-96.285 -214.144)" fill="#6c63ff"/>
    <path id="Path_161" data-name="Path 161" d="M125.431,542.133l56.858,5.475.011-.034a193.673,193.673,0,0,0-8.433-19.069l-58.239-5.177q1.483,3.928,3.353,7.939a69.413,69.413,0,0,0,6.45,10.865Z" transform="translate(-99.341 -237.529)" fill="#6c63ff"/>
    <path id="Path_162" data-name="Path 162" d="M329,560.375l.129.4a63.573,63.573,0,0,0-6.75-16.5l.148.38-12.827,17.1c-.342,7.068-.947,14.978-1.97,23.3Z" transform="translate(-165.497 -244.742)" fill="#6c63ff"/>
    <path id="Path_163" data-name="Path 163" d="M323.25,537.307a33.486,33.486,0,0,0-11.71-11.934c-.237-.135-.476-.26-.715-.385.113,1.921.7,13.2,0,28.879Z" transform="translate(-166.563 -238.1)" fill="#6c63ff"/>
    <path id="Path_164" data-name="Path 164" d="M294.54,654.76q-.786,2.585-1.628,5.079l31.7-19.547.055.472q.909-4.415,1.481-8.822l-31.572,23.032Z" transform="translate(-160.394 -274.933)" fill="#6c63ff"/>
    <path id="Path_165" data-name="Path 165" d="M301.671,617.559l28.395-24.5.092.445a99.925,99.925,0,0,0-3-23.4L305.48,595.249Q303.989,606.941,301.671,617.559Z" transform="translate(-163.41 -253.639)" fill="#6c63ff"/>
    <path id="Path_166" data-name="Path 166" d="M328.159,606.584,299.38,631.415q-1.586,7.072-3.533,13.608l31.309-22.84.073.46A119.334,119.334,0,0,0,328.159,606.584Z" transform="translate(-161.405 -266.201)" fill="#6c63ff"/>
    <path id="Path_167" data-name="Path 167" d="M217.09,666.152q.038-.581.073-1.194a99.314,99.314,0,0,0,13.027-19.973l-17.381-21.659q-.342-1.109-.715-2.212l18.5,23.054a143.511,143.511,0,0,0,6.623-15.875l-36.59-36.756c.114-.288.23-.584.347-.885l36.543,36.709.03-.019a193.719,193.719,0,0,0,5.667-20.065l-36.288-35.921q.114-.5.225-1.006l36.289,35.922q.5-2.258.952-4.488l-36.182-36.842q.091-.527.177-1.059l36.21,36.871c1.217-6.167,2.141-12.133,2.842-17.688l-35.472-37.848.175-.441c-.84,1.224-1.657,2.508-2.453,3.838a73.131,73.131,0,0,0-1.021-12.553l-13.592,34.089a109.739,109.739,0,0,1,2.356,14.271c-.082.813-.157,1.63-.216,2.455l.447.449c.028.438.055.875.076,1.31l-.594-.6c-.028.478-.049.96-.07,1.442a103.343,103.343,0,0,0-2.653-19.243l-51.3-10.554c2.584,2.653,5.292,5.23,8.06,7.717a62.707,62.707,0,0,0-16.574-2.832l.4.078,7.573,19.986c5.787,4.072,12.144,8.818,18.625,14.136l-9.322-30.742q.518.461,1.039.917l9.3,30.663q9.077,7.518,16.805,15.16l-4.273-28.858.894.621,4.319,29.17q5.124,5.125,9.6,10.269L187.5,594.335l.866.54,2.093,31.972-.2-.086q1.763,2.048,3.419,4.095l.4-32.53q.462.271.855.5l-.408,33.093c.339.426.682.851,1.014,1.277a142.6,142.6,0,0,1,8.886,12.72l.193-2.96q.357,1.316.714,2.588l-.11,1.683c.4.662.784,1.323,1.165,1.984q.445,1.512.882,2.94-1.264-2.343-2.641-4.639l-52.05,5.82c27.368,14.4,61.329,21.221,63.494,21.647-.513-2.271-1.138-4.521-1.856-6.751.187-.2.371-.393.556-.591.088.266.18.533.265.8-.1.1-.192.209-.289.312l.336-.159q.75,2.351,1.345,4.687c.158-1.265.37-3.186.556-5.616,9.374-4.693,33.651-18.407,45.976-39.907L230.75,645.335A100.292,100.292,0,0,1,217.09,666.152Zm-10.673-50.791.08-1.221.817,1.018-.08,1.221Z" transform="translate(-105.877 -241.915)" fill="#6c63ff"/>
    <path id="Path_168" data-name="Path 168" d="M298.568,523.625l.285-.135c-7.111-3.6-14.71-3.026-21.917.943l21.652,28.077C299.342,535.543,298.579,523.794,298.568,523.625Z" transform="translate(-154.892 -236.76)" fill="#6c63ff"/>
    <path id="Path_169" data-name="Path 169" d="M288.273,667.6a142.589,142.589,0,0,1-5.987,14.315l31.905-17.42.043.464a56.534,56.534,0,0,0,5.367-13.22q.709-2.724,1.283-5.459l-32.075,19.78C288.631,666.575,288.455,667.092,288.273,667.6Z" transform="translate(-156.735 -279.871)" fill="#6c63ff"/>
    <path id="Path_170" data-name="Path 170" d="M290.373,555.633l-22.149-28.721.192-.42c-5.411,3.071-10.59,8.059-15.164,14.632l35.183,37.539C289.441,570.435,290.036,562.618,290.373,555.633Z" transform="translate(-146.736 -238.618)" fill="#6c63ff"/>
    <path id="Path_171" data-name="Path 171" d="M125.072,579.53a33.485,33.485,0,0,0-16.349,3.5c-.241.129-.475.263-.708.4,1.682.933,11.521,6.474,24.392,15.461Z" transform="translate(-96.719 -256.882)" fill="#6c63ff"/>
    <path id="Path_172" data-name="Path 172" d="M148.808,633.268l-50.957,9.7-.278-.384a83.44,83.44,0,0,0,8.233,14.665l56.421-12.112C157.669,640.808,153.125,636.834,148.808,633.268Z" transform="translate(-93.123 -275.39)" fill="#6c63ff"/>
    <path id="Path_173" data-name="Path 173" d="M170.734,655.684q-1.638-1.633-3.281-3.207l-56.63,12.157-.283-.382q1.706,2.432,3.633,4.859l-.286-.381Z" transform="translate(-97.588 -282.005)" fill="#6c63ff"/>
    <path id="Path_174" data-name="Path 174" d="M206.376,697.46a143.516,143.516,0,0,0-9.863-14.092l-55.449,12.3a115.452,115.452,0,0,0,13.167,8.09l-.288-.433Z" transform="translate(-108.1 -292.643)" fill="#6c63ff"/>
    <path id="Path_175" data-name="Path 175" d="M101.783,586.054l.038-.313c-6.846,4.08-10.43,10.805-10.936,19.017l35.306-3.258C112.263,591.781,101.931,586.134,101.783,586.054Z" transform="translate(-90.82 -259.023)" fill="#6c63ff"/>
    <path id="Path_176" data-name="Path 176" d="M127.193,610.886l-36.116,3.333-.252-.388c-.3,6.214,1.138,13.259,4.241,20.641l50.542-9.622C139.2,619.6,132.913,614.909,127.193,610.886Z" transform="translate(-90.786 -267.682)" fill="#6c63ff"/>
    <path id="Path_177" data-name="Path 177" d="M187.441,674.008a193.693,193.693,0,0,0-13.914-15.528L116.54,671.558q2.624,3.277,5.642,6.514a69.406,69.406,0,0,0,9.492,8.339l55.766-12.368Z" transform="translate(-99.655 -284.073)" fill="#6c63ff"/>
    <rect id="Rectangle_94" data-name="Rectangle 94" width="9.834" height="72.118" transform="translate(314.223 272.082)" fill="#3f3d56"/>
    <rect id="Rectangle_95" data-name="Rectangle 95" width="9.834" height="72.118" transform="translate(430.268 272.082)" fill="#3f3d56"/>
    <rect id="Rectangle_96" data-name="Rectangle 96" width="357.968" height="16.39" transform="translate(198.178 260.937)" fill="#e6e6e6"/>
    <rect id="Rectangle_97" data-name="Rectangle 97" width="357.968" height="16.39" transform="translate(198.178 312.731)" fill="#e6e6e6"/>
    <rect id="Rectangle_98" data-name="Rectangle 98" width="357.968" height="9.834" transform="translate(198.178 282.572)" fill="#e6e6e6"/>
    <rect id="Rectangle_99" data-name="Rectangle 99" width="357.968" height="9.834" transform="translate(198.178 297.651)" fill="#e6e6e6"/>
    <rect id="Rectangle_100" data-name="Rectangle 100" width="11.146" height="86.542" transform="translate(197.195 257.986)" fill="#3f3d56"/>
    <rect id="Rectangle_101" data-name="Rectangle 101" width="11.146" height="86.542" transform="translate(545.001 257.659)" fill="#3f3d56"/>
    <rect id="Rectangle_102" data-name="Rectangle 102" width="11.146" height="89.82" transform="translate(166.708 367.147)" fill="#3f3d56"/>
    <rect id="Rectangle_103" data-name="Rectangle 103" width="11.146" height="47.86" transform="translate(203.423 363.869)" fill="#3f3d56"/>
    <rect id="Rectangle_104" data-name="Rectangle 104" width="11.146" height="47.86" transform="translate(542.379 363.869)" fill="#3f3d56"/>
    <rect id="Rectangle_105" data-name="Rectangle 105" width="11.146" height="89.82" transform="translate(573.848 367.147)" fill="#3f3d56"/>
    <rect id="Rectangle_106" data-name="Rectangle 106" width="418.285" height="11.801" transform="translate(166.708 367.147)" fill="#3f3d56"/>
    <path id="Path_178" data-name="Path 178" d="M284.435,520l-30.159,26.225H672.562L643.714,520Z" transform="translate(-87.568 -179.078)" fill="#e6e6e6"/>
    <path id="Path_179" data-name="Path 179" d="M264.421,112.165l-.085-.472-8.071-4.275H255l-.484-.928H237.881l-3.857.928H219.819l-3.848,4.491-.039.275c-.249,1.606-5.815,39.377,8.871,51.394l6.124,2.845h3.96l-.774-1.546,3.443,1.546H248.7l.2-.3,6.614-2.476.17-.2C256.278,162.746,270.335,145.667,264.421,112.165Z" transform="translate(-133.456 -93.978)" fill="#6c63ff" opacity="0.1"/>
    <rect id="Rectangle_107" data-name="Rectangle 107" width="6.556" height="17.046" transform="translate(104.425 55.728)" fill="#e6e6e6"/>
    <rect id="Rectangle_108" data-name="Rectangle 108" width="11.801" height="327.81" transform="translate(101.474 94.737)" fill="#3f3d56"/>
    <rect id="Rectangle_109" data-name="Rectangle 109" width="17.702" height="11.146" transform="translate(98.524 89.164)" fill="#3f3d56"/>
    <path id="Path_180" data-name="Path 180" d="M140.276,105l11.146,11.8-4.589,8.523,9.179,1.967,8.523-1.967-5.245-9.179L169.779,105Z" transform="translate(-48.308 -36.16)" fill="#3f3d56"/>
    <path id="Path_181" data-name="Path 181" d="M215.307,110.585l-5.245-5.245L214,101.406h49.827L267.757,106l-5.9,4.589S230.386,109.273,215.307,110.585Z" transform="translate(-131.862 -92.227)" fill="#3f3d56"/>
    <path id="Path_182" data-name="Path 182" d="M264.421,110.927l-.085-.472-8.071-4.275-3.685-1.954L231.9,102.9l-11.6,2.727-.479.557-3.848,4.491-.039.275c-.249,1.606-5.815,39.377,8.871,51.394l6.124,2.845,5.153,2.393-1.193-2.393-1.96-3.914c-2.052-11.945-6.563-43.33-3.685-49.886l11.893-3.835,10.556,3.921c.728,4.714,5.435,37.764-2.813,49.545l-.177.256v3.691l6.812-2.55.17-.2C256.278,161.508,270.335,144.43,264.421,110.927Zm-10.1,49.827-3.658,1.377v-.249c9.048-13.5,3.134-49.748,2.878-51.3l-.092-.564-10.346-3.842-1.921-.715-2.216.715-11.093,3.58-.19.334c-4.216,7.559,3.016,49.853,3.324,51.65l.026.144.78,1.56-5.868-2.708c-13.08-10.89-8.6-45.762-8.117-49.217l3.54-4.13,5.153-1.213,5.54-1.3,9.12.59,10.844.7.026.013,10.51,5.56c5.206,30.388-6.74,47.074-8.241,49.014Z" transform="translate(-133.457 -92.74)" fill="#3f3d56"/>
    <ellipse id="Ellipse_3" data-name="Ellipse 3" cx="17.702" cy="9.179" rx="17.702" ry="9.179" transform="translate(90.001)" fill="#3f3d56"/>
    <path id="Path_183" data-name="Path 183" d="M235.552,706.406l-10.49,33.437s16.391,9.179,38.682,0l-10.49-33.437Z" transform="translate(-137.028 -300.577)" fill="#3f3d56"/>
    <circle id="Ellipse_4" data-name="Ellipse 4" cx="5.245" cy="5.245" r="5.245" transform="translate(102.458 47.205)" fill="#6c63ff"/>
    <path id="Path_184" data-name="Path 184" d="M522.729,440.092a22.188,22.188,0,0,1,6.073-3.046,154.861,154.861,0,0,1,42.791-9.315c12.724-.9,26.514.169,36.452,8.166a12.534,12.534,0,0,1,3.7,4.308c1.25,2.7.871,5.834.467,8.78a9.921,9.921,0,0,1-.851,3.305c-1.337,2.546-4.63,3.438-7.49,3.133s-5.543-1.515-8.364-2.076a37.368,37.368,0,0,0-5.283-.538l-17.692-.958c-11-.6-22.148-1.181-32.939,1.039a32.809,32.809,0,0,0-9.517,3.279c-2.465,1.384-4.125,3.37-6.411.814C519.645,452.493,517.421,444.24,522.729,440.092Z" transform="translate(-238.461 -204.515)" fill="#2f2e41"/>
    <path id="Path_185" data-name="Path 185" d="M563.6,456.4s23.8-10.667,32.822,1.641-4.923,7.385-4.923,7.385l-15.59,4.923-17.231-3.282Z" transform="translate(-251.918 -213.005)" fill="#f2f2f2"/>
    <path id="Path_186" data-name="Path 186" d="M568.065,442.889s3.282,15.59.821,19.693,13.949,9.847,13.949,9.847l15.59-6.564s-4.1-25.437,0-30.36Z" transform="translate(-255.151 -207.284)" fill="#895656"/>
    <path id="Path_187" data-name="Path 187" d="M568.065,442.889s3.282,15.59.821,19.693,13.949,9.847,13.949,9.847l15.59-6.564s-4.1-25.437,0-30.36Z" transform="translate(-255.151 -209.284)" opacity="0.1"/>
    <path id="Path_188" data-name="Path 188" d="M540,723.934a89.765,89.765,0,0,1,5.422,14.21,1.156,1.156,0,0,0,1.436.955l14.6-.016c1.8,0,4.218-.581,4.2-2.382-.013-1.265-1.307-2.055-2.269-2.876-2.672-2.28-3.367-6.039-4.474-9.372a31.8,31.8,0,0,0-11.831-15.89,6.925,6.925,0,0,0-2.529-1.25,7.05,7.05,0,0,0-2.773.15c-2.562.517-12.13,2.286-10.322,6.012.778,1.6,3.662,3.275,4.872,4.774A34.3,34.3,0,0,1,540,723.934Z" transform="translate(-242.467 -300.865)" fill="#575a89"/>
    <path id="Path_189" data-name="Path 189" d="M616.4,702.51a33.125,33.125,0,0,1-1.716,3.154c-2.114,3.487-4.61,6.741-6.579,10.312a17.022,17.022,0,0,0-2.4,7.176,7.971,7.971,0,0,0,2.786,6.782c2.119,1.608,5.024,1.682,7.657,1.308s5.251-1.129,7.9-.931c-.894-5.06,3.373-9.514,4.441-14.54.3-1.412.344-2.876.746-4.262a20.88,20.88,0,0,1,1.652-3.653,47.232,47.232,0,0,0,4.457-13.146c.1-.555-12.974-.646-14.2-.381C617.324,695.157,617.884,699.337,616.4,702.51Z" transform="translate(-268.111 -296.369)" fill="#575a89"/>
    <path id="Path_190" data-name="Path 190" d="M467,577.223c-3.732,5.841-2.872,13.581-.251,20s6.794,12.089,9.649,18.405c1.82,4.027,3.1,8.3,5.147,12.211,2.539,4.848,6.245,9.12,7.948,14.321,1.086,3.315,1.335,6.948,3.094,9.96a30.52,30.52,0,0,0,3.624,4.5,41.548,41.548,0,0,1,8.353,14.92c1.608-4.789,6.422-7.929,11.366-8.965s10.068-.332,15.07.374c-2.79-4.323-5.608-8.7-7.271-13.569-1.609-4.709-2.083-9.718-3.167-14.575-2.222-9.959-6.969-19.145-11.668-28.2l24.154-1.916a94.163,94.163,0,0,1,11.867-.44c6.234.294,12.342,1.822,18.544,2.529s12.762.521,18.288-2.379a87.639,87.639,0,0,0-15.724,51.757,20.038,20.038,0,0,1,30.334,7.159c9.466-12.935,8.341-30.944,15.841-45.109,1.542-2.913,3.433-5.626,5.1-8.471a124.878,124.878,0,0,0,8.054-17.8c2.1-5.366,4.212-11.338,2.2-16.737a17.473,17.473,0,0,0-3.586-5.514c-4.328-4.771-10.351-8.3-16.791-8.448-9.886-.226-18.053,7.1-26.725,11.854a61.5,61.5,0,0,1-33.75,7c-11.912-.844-23.289-4.743-34.638-8.177a164.782,164.782,0,0,0-17.287-4.459c-4.867-.913-9.5.1-14.3,1.343C475.254,570.145,470.005,572.52,467,577.223Z" transform="translate(-219.481 -250.58)" fill="#2f2e41"/>
    <path id="Path_191" data-name="Path 191" d="M599.776,410.057a24.637,24.637,0,0,1-24.617,24.617,24.031,24.031,0,0,1-4.374-.394,24.616,24.616,0,1,1,28.99-24.223Z" transform="translate(-249.117 -190.043)" fill="#895656"/>
    <path id="Path_192" data-name="Path 192" d="M552.179,458.442s4.513,2.051,6.154,3.692,6.564,10.667,14.77,4.923,9.026-9.026,11.488-9.026,5.744,4.923,5.744,4.923l22.565,67.7a94.5,94.5,0,0,1-20.924,17.642c-13.129,8.206-28.719,12.308-36.1,9.026s-21.334-5.744-23.8-12.308-6.564-26.258-6.564-26.258L537,468.7Z" transform="translate(-240.496 -215.042)" fill="#575a89"/>
    <path id="Path_193" data-name="Path 193" d="M542.345,524.2c1.789-3.864,2.049-8.238,2.2-12.493a75.744,75.744,0,0,0-.334-12.638c-.727-5.489-2.515-10.777-3.643-16.2a68.479,68.479,0,0,1-1.435-14.456c.016-2.216.177-4.548,1.384-6.406.842-1.3,2.16-2.3,2.686-3.753,1.032-2.85-1.518-5.834-4.313-7.007a16.968,16.968,0,0,0-10.622-.426,50.54,50.54,0,0,0-9.992,4.087,22.873,22.873,0,0,0-6.528,4.22c-2.547,2.636-3.667,6.307-4.571,9.859-.724,2.843-1.367,5.807-.816,8.689.894,4.679,4.709,8.2,6.742,12.507,2.361,5,2.2,10.833,1.263,16.284s-2.607,10.782-3.121,16.29.275,11.429,3.726,15.753c1.406,1.762,5.221,5.938,7.8,5.465,2.022-.371,4.955-4.823,6.584-6.234C534.058,533.668,539.643,530.042,542.345,524.2Z" transform="translate(-233.83 -212.339)" fill="#2f2e41"/>
    <path id="Path_194" data-name="Path 194" d="M619.964,450.075c.072,4.576-1.945,8.927-4.318,12.841s-5.159,7.616-6.908,11.846a27.152,27.152,0,0,0-1.267,16.7,53.9,53.9,0,0,0,1.81,5.589l4.5,12.332a21.4,21.4,0,0,0,2.607,5.474,17.674,17.674,0,0,0,3.543,3.408,33.068,33.068,0,0,0,11.56,6.031,19.551,19.551,0,0,0,12.855-.733,186.009,186.009,0,0,1,7.985-49.3c.9-2.954,1.881-6.063,1.188-9.071-.777-3.37-3.483-5.9-6.056-8.21-7.869-7.066-16.522-14.489-27.055-15.441C614.308,440.991,619.912,446.766,619.964,450.075Z" transform="translate(-268.459 -209.351)" fill="#2f2e41"/>
    <path id="Path_195" data-name="Path 195" d="M539.96,593.132c.624,1.222,1.013,2.552,1.63,3.777a21.1,21.1,0,0,0,3.348,4.5c5.486,6.083,12.193,12.144,20.377,12.511a5.59,5.59,0,0,0,2.4-.3,4.762,4.762,0,0,0,2.556-3.654c.58-3.178-.823-6.349-2.227-9.257-3.044-6.3-6.469-12.769-12.168-16.836a22.832,22.832,0,0,0-19.7-2.963c-2.969.915-7.891,2.511-3.961,5.22C535.2,588.184,538.232,589.748,539.96,593.132Z" transform="translate(-242.303 -257.008)" fill="#895656"/>
    <path id="Path_196" data-name="Path 196" d="M584.105,472.182a18.337,18.337,0,0,0-3.851-6.209,14.286,14.286,0,0,0-5.882-2.98,32.168,32.168,0,0,0-8.629-1.237c-3.475-.022-7.5.911-8.98,4.057-1.172,2.5-.263,5.457.916,7.952a7.8,7.8,0,0,0,2.433,3.286c1.5,1.013,3.437.98,5.213,1.32a24.047,24.047,0,0,1,7.705,3.492l6.087,3.679,10.455,6.319c-.276-.167-.177-7.336-.5-8.511C588.039,479.565,585.71,475.767,584.105,472.182Z" transform="translate(-251.071 -216.325)" fill="#895656"/>
    <path id="Path_197" data-name="Path 197" d="M543.55,749.986c-2.446,3.324-1.956,8.076-4.123,11.589-1.878,3.045-5.418,4.642-7.768,7.34a19.678,19.678,0,0,0-2,2.873c-2.179,3.651-3.951,8.329-1.8,12,1.727,2.952,5.356,4.106,8.685,4.893,4.207.994,8.578,1.79,12.834,1.03s8.415-3.366,9.932-7.414a28.609,28.609,0,0,1,1.062-3c2.307-4.541,9.542-4.59,11.9-9.1,1.652-3.159.133-6.976-1.385-10.2l-4.636-9.85c-1.539-3.269-7.776-1.389-11.028-2.172C550.984,746.951,546.6,745.826,543.55,749.986Z" transform="translate(-240.97 -314.564)" fill="#2f2e41"/>
    <path id="Path_198" data-name="Path 198" d="M602.576,737.732a13.183,13.183,0,0,0-4.195,5.747c-2.294,5.294-3.083,11.1-3.848,16.816a20.366,20.366,0,0,0-.133,6.9c.989,4.67,5.221,8.109,9.776,9.537s9.441,1.208,14.209.974a10.174,10.174,0,0,0,4.466-.907c2.4-1.321,3.333-4.427,2.922-7.133s-1.889-5.112-3.336-7.435-2.926-4.728-3.34-7.433c-.7-4.55,1.27-11.229-1.525-15.345S606.314,735.111,602.576,737.732Z" transform="translate(-264.135 -310.772)" fill="#2f2e41"/>
    <path id="Path_199" data-name="Path 199" d="M594.967,390.5a6.248,6.248,0,0,0-2.71-3.537,14.34,14.34,0,0,0-.572-4.668c-1.491-4.407-5.022-4.155-8.354-6.1-1.446-.845-1.356-1.593-2.109-2.981a11.064,11.064,0,0,0-4.263-4.35c-2.138-1.362-4.394-2.765-6.923-2.937-5.315-.362-9.389,4.637-14.469,6.241-2.239.707-4.645.736-6.9,1.4s-4.5,2.265-4.832,4.589c-.155,1.073.118,2.173-.039,3.246-.312,2.132-2.182,3.625-3.435,5.378-2.769,3.877-2.452,9.355-.238,13.574a19.085,19.085,0,0,0,1.6,2.5,15.37,15.37,0,0,0,1.686,5.707c2.214,4.219,6.024,7.371,10,9.99a23.606,23.606,0,0,1-.59-4.26,2.938,2.938,0,0,1,.181-1.412c.443-.926,1.615-1.173,2.507-1.68,1.849-1.051,2.575-3.377,2.628-5.5s-.4-4.257-.174-6.372a3.482,3.482,0,0,1,1.192-2.561,4.117,4.117,0,0,1,2.247-.536c3.789-.155,7.749-.224,11.092-2.016a16.435,16.435,0,0,1,3.452-1.746c2.841-.741,5.744,1.25,7.381,3.687s2.453,5.337,3.964,7.854,4.12,4.762,7.04,4.464a1.169,1.169,0,0,0,.872-.388,1.307,1.307,0,0,0,.161-.743l.163-11.164a16.874,16.874,0,0,0-.563-5.674Z" transform="translate(-244.927 -183.316)" fill="#2f2e41"/>
    <path id="Path_200" data-name="Path 200" d="M497.675,487.056c-2.349,3.465-5.057,6.8-6.348,10.779-.759,2.34-.994,4.815-1.544,7.213-1.83,7.988-7.116,15.083-7.647,23.261a11.059,11.059,0,0,0,.776,5.341c1.516,3.3,5.146,5.037,8.608,6.131s7.18,1.881,9.943,4.236a30.461,30.461,0,0,1,3.768,4.368,36.5,36.5,0,0,0,17.433,11.927c-.542-3.734-.8-8.234,2.188-10.542,1.616-1.249,3.774-1.472,5.809-1.647l9.614-.831A123.545,123.545,0,0,0,519.2,530.872c-2.659-1.642-5.552-3.375-6.766-6.254a15.105,15.105,0,0,1-.766-5.77,142.186,142.186,0,0,0-1.811-21.345c-.792-4.9-1.84-9.759-3.038-14.578-.337-1.353-2.325-7.42-4.773-6-.577.334-1.116,4.183-1.453,4.982A30.21,30.21,0,0,1,497.675,487.056Z" transform="translate(-225.539 -221.475)" fill="#2f2e41"/>
    <path id="Path_201" data-name="Path 201" d="M645.985,471.532l3.926,8.165a19.621,19.621,0,0,1,2.475,11.041l.233,24.494a35.673,35.673,0,0,1-.805,9.753,7.811,7.811,0,0,1-1.354,2.912,9.1,9.1,0,0,1-2.322,1.871c-7.431,4.643-17.066,7.282-24.917,3.391a34.485,34.485,0,0,1-5.108-3.335c-3.129-2.317-6.3-4.679-8.645-7.791-2.45-3.256-3.854-7.155-5.5-10.881A83.619,83.619,0,0,0,592.6,492.508a4.915,4.915,0,0,1-1.408-2.79c-.049-2.147,2.5-3.2,4.485-4.021,3.393-1.4,6.593-4.088,7.161-7.713,7.215,9.462,15.177,19.459,26.563,22.917a1.175,1.175,0,0,0,1.807-1c.646-2.7.875-5.489,1.347-8.229a46.871,46.871,0,0,1,4.945-14.26C638.846,474.911,643.214,465.768,645.985,471.532Z" transform="translate(-263.115 -219.046)" fill="#2f2e41"/>
    <path id="Path_202" data-name="Path 202" d="M523.493,508.533a37.659,37.659,0,0,1-3.6,16.782,13.867,13.867,0,0,0-1.409,3.7c-.431,2.759,1.139,5.429,2.934,7.569a31.121,31.121,0,0,0,13.306,9.257" transform="translate(-238.052 -232.434)" opacity="0.1"/>
    <path id="Path_203" data-name="Path 203" d="M654.22,501.081c-.578,1.556-.053,3.276.393,4.875a49.12,49.12,0,0,1,1.79,14.252.519.519,0,0,1-.607.622c-1.894.116-4.062.128-5.347-1.268" transform="translate(-283.522 -229.867)" opacity="0.1"/>
    <rect id="Rectangle_110" data-name="Rectangle 110" width="234.256" height="46.251" transform="translate(433.446 83.592)" fill="#e6e6e6"/>
    <rect id="Rectangle_111" data-name="Rectangle 111" width="234.256" height="46.251" transform="translate(433.446 137.651)" fill="#e6e6e6"/>
    <circle id="Ellipse_5" data-name="Ellipse 5" cx="13.815" cy="13.815" r="13.815" transform="translate(444.257 92.601)" fill="#6c63ff"/>
    <rect id="Rectangle_112" data-name="Rectangle 112" width="136.349" height="3.003" transform="translate(491.109 101.011)" fill="#6c63ff"/>
    <rect id="Rectangle_113" data-name="Rectangle 113" width="136.349" height="3.003" transform="translate(491.109 108.819)" fill="#6c63ff"/>
    <circle id="Ellipse_6" data-name="Ellipse 6" cx="13.815" cy="13.815" r="13.815" transform="translate(444.257 147.261)" fill="#ccc"/>
    <rect id="Rectangle_114" data-name="Rectangle 114" width="136.349" height="3.003" transform="translate(491.109 155.67)" fill="#ccc"/>
    <rect id="Rectangle_115" data-name="Rectangle 115" width="136.349" height="3.003" transform="translate(491.109 163.479)" fill="#ccc"/>
    <rect id="Rectangle_116" data-name="Rectangle 116" width="234.256" height="46.251" transform="translate(433.446 190.756)" fill="#e6e6e6"/>
    <circle id="Ellipse_7" data-name="Ellipse 7" cx="13.815" cy="13.815" r="13.815" transform="translate(444.257 200.367)" fill="#ccc"/>
    <rect id="Rectangle_117" data-name="Rectangle 117" width="136.349" height="3.003" transform="translate(491.109 208.776)" fill="#ccc"/>
    <rect id="Rectangle_118" data-name="Rectangle 118" width="136.349" height="3.003" transform="translate(491.109 216.584)" fill="#ccc"/>
    <path id="Path_204" data-name="Path 204" d="M694.167,162.356l-4.948-6.6,1.172-.879,4.031,5.374,15.87-12.985.928,1.134Z" transform="translate(-237.353 -50.717)" fill="#f2f2f2"/>
  </g>
</svg>
