<svg xmlns="http://www.w3.org/2000/svg" width="976.6" height="620.082" viewBox="0 0 976.6 620.082">
  <g id="care" transform="translate(0 -93.455)">
    <path id="Path_18" data-name="Path 18" d="M309.285,445.838C236.556,391.732,175.723,320.727,175.723,248.6c0-81.058,55.826-146.776,124.669-146.776,55.067,0,99.72,52.582,99.72,117.421,0-64.839,44.655-117.421,99.72-117.421,40.249,0,76.011,22.427,98.8,57.27,16.261,24.789,25.87,55.826,25.87,89.51,0,101.322-120.1,200.4-224.389,253.706A639.917,639.917,0,0,1,309.285,445.838Z" transform="translate(159.455 7.595)" fill="#ffc843"/>
    <path id="Path_19" data-name="Path 19" d="M382.383,370.857l53-110.043a47.4,47.4,0,0,1,60.2-23.509l.347.137a47.4,47.4,0,0,1,26,61.963l-10.87,26.429" transform="translate(346.983 127.489)" fill="#e1eaf8"/>
    <path id="Path_20" data-name="Path 20" d="M8.439,290.661,161.531,188.675c46.635-31.078,105.219-40.058,158.175-21.863,2.146.734,4.305,1.5,6.409,2.339L614.053,279.6a49.71,49.71,0,0,1-33.9,93.447L397.475,310.58a46.1,46.1,0,0,0-30.114,87.133l209.357,73.161a87.2,87.2,0,0,0,57.484,0l240.022-83.986a59.319,59.319,0,0,1,74.081,32.47c.061.145.124.286.185.431a59.321,59.321,0,0,1-31.825,77.84L602.685,628.6a142.153,142.153,0,0,1-99.287,3.826L177.1,524.911a71.6,71.6,0,0,0-51.2,2.436l-12.948,5.667" transform="translate(7.657 58.093)" fill="#fff"/>
    <g id="Group_5" data-name="Group 5" transform="translate(0 93.455)">
      <path id="Path_21" data-name="Path 21" d="M186.445,187.89a15.913,15.913,0,0,0,21.726-5.882c20.381-35.518,53.868-56.721,89.573-56.721,46.209,0,83.8,45.536,83.8,101.505a15.916,15.916,0,0,0,31.831,0c0-55.971,37.6-101.505,83.8-101.505,20.171,0,39.865,6.716,56.958,19.419a15.914,15.914,0,1,0,18.988-25.544c-22.624-16.816-48.885-25.706-75.948-25.706-42.434,0-79.6,26.49-99.72,65.884-20.116-39.394-57.284-65.884-99.72-65.884-47.247,0-91.051,27.181-117.179,72.709A15.918,15.918,0,0,0,186.445,187.89Z" transform="translate(161.928 -93.455)" fill="#434c54"/>
      <path id="Path_22" data-name="Path 22" d="M693.415,390.35,554.3,448.378a126.225,126.225,0,0,1-88.174,3.4L139.845,344.261a87.366,87.366,0,0,0-62.573,2.968L64.324,352.9A15.915,15.915,0,0,0,77.09,382.053l12.961-5.673a55.57,55.57,0,0,1,39.825-1.892L456.172,482a158.027,158.027,0,0,0,110.4-4.25l139.1-58.026a15.915,15.915,0,0,0-12.257-29.376Z" transform="translate(49.716 130.126)" fill="#434c54"/>
      <path id="Path_23" data-name="Path 23" d="M970.622,444.391c-.017-.036-.094-.219-.111-.256l-.12-.28a75.507,75.507,0,0,0-84.979-43.7,63.3,63.3,0,0,0-36.7-77.266c-.036-.015-.418-.166-.452-.181a63.507,63.507,0,0,0-80.419,31.392L717.709,458.211l-81.271,28.436a71.5,71.5,0,0,1-46.991,0l-2.325-.813C689.463,428.81,799.7,331.781,799.7,228.9c0-35.863-9.848-69.835-28.48-98.236A15.916,15.916,0,0,0,744.6,148.125c15.221,23.2,23.265,51.134,23.265,80.777,0,87.293-103.529,180.37-208.481,235.776a626.726,626.726,0,0,1-81.325-51.308,498.209,498.209,0,0,1-57.734-49.919L582.469,418.9A65.618,65.618,0,0,0,664,330.821a64.982,64.982,0,0,0-36.764-35.282L339.471,185.159c-2.071-.822-4.336-1.652-7.115-2.6-56.458-19.4-120.824-10.546-172.17,23.671L7.093,308.216A15.914,15.914,0,1,0,24.741,334.7L177.835,232.719c43.144-28.753,97.044-36.247,144.2-20.051,2.3.788,4.107,1.446,5.86,2.14L615.859,325.267a33.811,33.811,0,0,1,18.866,45.061,33.984,33.984,0,0,1-41.944,18.454L410.105,326.316a62.01,62.01,0,0,0-40.518,117.215L578.943,516.69a103.491,103.491,0,0,0,67.992,0L886.961,432.7a43.577,43.577,0,0,1,54.27,23.9l.074.175a43.4,43.4,0,0,1-23.292,56.956L789.842,567.2A15.915,15.915,0,1,0,802.1,596.577l128.171-53.463a75.224,75.224,0,0,0,40.352-98.723ZM360.844,377.267a29.907,29.907,0,0,1,13.068-17.735c22.378,27.293,50.955,53.942,85.128,79.364,1.89,1.411,3.832,2.8,5.751,4.194l-84.693-29.6A30.36,30.36,0,0,1,360.844,377.267Zm435.676-9.356a31.575,31.575,0,0,1,39.982-15.62c.021.006.223.09.244.1a31.485,31.485,0,0,1,17.262,41.16l-8.152,19.824-85.664,29.973Z" transform="translate(0 -66.21)" fill="#434c54"/>
    </g>
  </g>
</svg>
