<svg id="ophtalmologist" xmlns="http://www.w3.org/2000/svg" width="239.897" height="237.946" viewBox="0 0 239.897 237.946">
  <g id="Group_1" data-name="Group 1" transform="translate(14.118 67.672)">
    <path id="Path_1" data-name="Path 1" d="M40.009,144.25v20.844S16.738,153.054,40.009,144.25Z" transform="translate(-29.667 -144.25)" fill="#edb288"/>
    <path id="Path_2" data-name="Path 2" d="M267.8,165.094s23.271-12.04,0-20.844v20.844" transform="translate(-154.474 -144.25)" fill="#edb288"/>
  </g>
  <path id="Path_3" data-name="Path 3" d="M239.332,388.11v1.475H162V326.244l17.418-16.894h24.366a33.662,33.662,0,0,1,20.13,6.71l.761.476A52.493,52.493,0,0,0,216.49,344.9,51.189,51.189,0,0,0,239.332,388.11ZM203.5,348.088a11.687,11.687,0,0,0-3.474-8.185,10.864,10.864,0,0,0-8.185-3.474H191.6a11.677,11.677,0,0,0-8.185,19.892,12.3,12.3,0,0,0,8.185,3.474h.238A11.688,11.688,0,0,0,203.5,348.088Z" transform="translate(-84.906 -163.108)" fill="#d4e1f4"/>
  <path id="Path_4" data-name="Path 4" d="M196.339,45.361H126.954A16.678,16.678,0,0,1,111.3,28.705a14.789,14.789,0,0,1,1.761-7.234,18.842,18.842,0,0,1,3-4.711A17.121,17.121,0,0,1,128,12.049h34.788a33.289,33.289,0,0,1,33.55,33.074Z" transform="translate(-58.33 -7.29)" fill="#4b5d63"/>
  <path id="Path_5" data-name="Path 5" d="M155.938,82.05v49.207a49.543,49.543,0,0,1-32.075,46.019,50.418,50.418,0,0,1-17.418,3,48.193,48.193,0,0,1-34.788-14.42A49,49,0,0,1,57,131.3V101.942s23.89,3.712,41.5-19.892Z" transform="translate(-29.874 -43.979)" fill="#f7caa5"/>
  <path id="Path_6" data-name="Path 6" d="M219.854,369.722a11.862,11.862,0,0,1,3.474,8.185,11.7,11.7,0,0,1-11.707,11.707h-.238a12.2,12.2,0,0,1-8.185-3.474,11.684,11.684,0,0,1,8.185-19.892h.238A10.894,10.894,0,0,1,219.854,369.722Z" transform="translate(-104.736 -192.929)" fill="#00efd1"/>
  <path id="Path_7" data-name="Path 7" d="M161.6,294.756h0L144.18,311.65,128,294.756h0V282.574a46.1,46.1,0,0,0,15.657,2.475,49.511,49.511,0,0,0,17.418-3l.476,1v11.707Z" transform="translate(-67.086 -148.8)" fill="#edb288"/>
  <path id="Path_8" data-name="Path 8" d="M41.587,309.25H63.954l16.18,16.894v63.389H5.8V342.848A33.817,33.817,0,0,1,39.636,309.3h1.951Z" transform="translate(-3.04 -163.056)" fill="#d4e1f4"/>
  <path id="Path_9" data-name="Path 9" d="M98.5,55.732h0C80.842,79.336,57,75.624,57,75.624V55.732s3.474-24.366,27.6-23.89a14.788,14.788,0,0,0-1.761,7.234A16.678,16.678,0,0,0,98.5,55.732Z" transform="translate(-29.874 -17.661)" fill="#4b5d63"/>
  <g id="Group_2" data-name="Group 2" transform="translate(0 0)">
    <path id="Path_10" data-name="Path 10" d="M103.083,159.181A12.663,12.663,0,0,1,90.9,147v-2.237a3.717,3.717,0,0,1,3.712-3.712h0a3.717,3.717,0,0,1,3.712,3.712h0V147a5.228,5.228,0,0,0,4.711,4.711A4.692,4.692,0,0,0,107.747,147h0v-2.237a3.717,3.717,0,0,1,3.712-3.712h0a3.717,3.717,0,0,1,3.712,3.712h0V147a12.006,12.006,0,0,1-12.088,12.183Z" transform="translate(-47.641 -74.901)" fill="#083863"/>
    <path id="Path_11" data-name="Path 11" d="M191.881,159.181a12.391,12.391,0,0,1-8.471-3.712A11.209,11.209,0,0,1,179.7,147v-2.237a3.712,3.712,0,1,1,7.424,0h0V147a4.584,4.584,0,0,0,1.475,3.236,3.882,3.882,0,0,0,3.236,1.475A4.692,4.692,0,0,0,196.545,147h0v-2.237a3.712,3.712,0,0,1,7.424,0h0V147a12.006,12.006,0,0,1-12.088,12.183Z" transform="translate(-94.181 -74.901)" fill="#083863"/>
    <path id="Path_12" data-name="Path 12" d="M183.694,127.5a56.248,56.248,0,0,0-44.924,22.367,38.038,38.038,0,0,0-19.94-6.091H96.939v-6.187A50.488,50.488,0,0,0,129.014,92.85h.761a13.658,13.658,0,0,0,13.658-13.658,13.025,13.025,0,0,0-3.712-9.47,13.835,13.835,0,0,0-9.946-4H129.3V44.309h8.709c2,0,3.712-2.475,3.712-4.473A37.78,37.78,0,0,0,104.411,2.05H69.623A20.066,20.066,0,0,0,55.2,8.522a12.85,12.85,0,0,0-2.713,3.712c-19.892,1-29.22,18.084-29.838,27.364-.428,6.567,0,26.364,0,26.364h.238a12.079,12.079,0,0,0-9.185,4,12.692,12.692,0,0,0-4,9.47A13.658,13.658,0,0,0,23.366,93.088h.476a52.725,52.725,0,0,0,15.419,33.836,44.747,44.747,0,0,0,17.894,11.421v5.425H36.548C15.942,143.771,0,161.426,0,181.842v46.733c0,2,.761,4.711,2.713,4.711H154.379c.476,0,.761-.476,1.237-.761A55.055,55.055,0,0,0,183.076,240h.571a56.25,56.25,0,0,0,.048-112.5ZM22.367,85.331a5.479,5.479,0,0,1-5.235-5.711v-.286a6.441,6.441,0,0,1,1.57-4.378,4.514,4.514,0,0,1,3.664-1.57Zm84.328,93.275h.238a6.992,6.992,0,0,1,5.473,2.713,7.537,7.537,0,0,1,2.475,5.711,8.2,8.2,0,0,1-8.185,7.947,7.928,7.928,0,0,1-5.473-2.475,8.222,8.222,0,0,1-2.237-5.711,7.933,7.933,0,0,1,7.709-8.185ZM129.776,73.434a5.88,5.88,0,0,1,4.473,1.761,5.788,5.788,0,0,1,2,4.235,6.5,6.5,0,0,1-6.472,6.234H129.3V73.481h.476ZM57.964,17.992a21.547,21.547,0,0,1,2.475-4,13.185,13.185,0,0,1,9.185-4.473h34.788c15.181,0,27.84,12.421,29.6,27.364H68.862A12.924,12.924,0,0,1,56.679,23.7,13.029,13.029,0,0,1,57.964,17.992ZM29.838,40.359c.286-2.951,4-17.418,19.131-19.892a10.547,10.547,0,0,0,0,3A19.87,19.87,0,0,0,61.152,42.358,40.6,40.6,0,0,1,29.838,56.54C29.838,56.492,29.505,44.357,29.838,40.359ZM43.782,121.4A45.822,45.822,0,0,1,29.838,89.329V63.964H30.6A52.174,52.174,0,0,0,70.622,44.071h51.206V89.329a45.742,45.742,0,0,1-29.315,42.5A47.669,47.669,0,0,1,43.782,121.4ZM72.1,225.814H7.472V181.842a29.339,29.339,0,0,1,27.364-29.6v10.422a21.132,21.132,0,0,0-9.47,4.949,18.5,18.5,0,0,0-5.473,13.182v21.13a4,4,0,0,0,3.712,4h6.234a3.712,3.712,0,0,0,0-7.424H27.364V180.843a11.14,11.14,0,0,1,3.474-7.947,10.92,10.92,0,0,1,7.709-3.236,11.17,11.17,0,0,1,11.183,11.183V198.5H46.495a3.712,3.712,0,0,0,0,7.424h7.471a3.736,3.736,0,0,0,3.236-4v-21.13c0-8.947-4.949-16.656-14.9-18.417V151.194H59.2l12.944,15.419v59.2Zm-7.424-79.046v-6.234A48.808,48.808,0,0,0,76.1,142.01a38.9,38.9,0,0,0,13.42-1.761v6.472l-12.944,13.23Zm14.9,79.046V166.661l16.418-15.419h5.949v20.892c-4.949,1.761-11.183,7.709-11.183,14.9a16.687,16.687,0,0,0,15.895,15.419,15.153,15.153,0,0,0,15.371-14.943,15,15,0,0,0-4.949-11.374,10.243,10.243,0,0,0-7.709-4V151.242h9.518a30.3,30.3,0,0,1,15.847,4.9,56.264,56.264,0,0,0,7.519,65.578c1.095,1.38,2.284,2.76,3.474,4.093Z" transform="translate(0 -2.05)" fill="#083863"/>
  </g>
  <g id="Group_3" data-name="Group 3" transform="translate(141.435 158.852)">
    <path id="Path_13" data-name="Path 13" d="M369.381,351.95A15.181,15.181,0,1,1,354.2,367.131h0A15.222,15.222,0,0,1,369.381,351.95Z" transform="translate(-327.074 -344.288)" fill="#00efd1"/>
    <path id="Path_14" data-name="Path 14" d="M381.052,357.217a1.767,1.767,0,0,1,.618,2.379,1.913,1.913,0,0,1-.618.619L374.1,367.4a49.206,49.206,0,0,1-69.1,0l-7.233-7.234a2.253,2.253,0,0,1,0-3L305,350.222a48.714,48.714,0,0,1,68.909-.19l.191.19Zm-26.365,1.475a15.181,15.181,0,1,0-15.181,15.181h0A15.192,15.192,0,0,0,354.688,358.693Z" transform="translate(-297.2 -335.85)" fill="#00efd1"/>
  </g>
  <path id="Path_15" data-name="Path 15" d="M333.058,282.65a48.16,48.16,0,1,1-27.078,88.088,47.417,47.417,0,0,1-21.082-39.88,47.932,47.932,0,0,1,47.684-48.16,1.782,1.782,0,0,1,.476-.048Zm38.309,49.541a1.624,1.624,0,0,0,.571-2.189,1.642,1.642,0,0,0-.571-.571l-6.425-6.424a44.951,44.951,0,0,0-63.579-.191l-.191.191-6.663,6.424a2.047,2.047,0,0,0,0,2.76l6.663,6.662a45.444,45.444,0,0,0,63.77,0Z" transform="translate(-149.316 -149.115)" fill="#00acea"/>
  <g id="Group_4" data-name="Group 4" transform="translate(137.783 155.117)">
    <path id="Path_16" data-name="Path 16" d="M335.484,381.181A52.755,52.755,0,0,1,298.222,366l-7.234-7.234a6.455,6.455,0,0,1,0-8.185l7.234-7.233a52.678,52.678,0,0,1,74.334,0l7.234,7.233a5.476,5.476,0,0,1,.238,7.71l-.238.238L372.556,366A52.918,52.918,0,0,1,335.484,381.181Zm-37.786-26.6,5.949,5.949a45.009,45.009,0,0,0,63.627,0h0l5.949-5.949-5.949-5.949a44.779,44.779,0,0,0-63.294-.381l-.381.381Z" transform="translate(-289.525 -328)" fill="#083863"/>
    <path id="Path_17" data-name="Path 17" d="M365.293,381.936a18.893,18.893,0,1,1,0-37.786h0a18.893,18.893,0,0,1,0,37.786Zm0-30.314a11.547,11.547,0,1,0,.238,0Z" transform="translate(-319.334 -336.464)" fill="#083863"/>
  </g>
</svg>
